Coordinates
version=1
nRows=22
nColumns=24
inDegrees=yes

Units are S.I. units (second, meters, Newtons, ...)
Angles are in degrees.

endheader
time	pelvis_tilt	pelvis_list	pelvis_rotation	pelvis_tx	pelvis_ty	pelvis_tz	hip_flexion_r	hip_adduction_r	hip_rotation_r	knee_angle_r	ankle_angle_r	subtalar_angle_r	mtp_angle_r	hip_flexion_l	hip_adduction_l	hip_rotation_l	knee_angle_l	ankle_angle_l	subtalar_angle_l	mtp_angle_l	lumbar_extension	lumbar_bending	lumbar_rotation
      4.27500000	     -5.32262112	      8.59648095	     -2.04020525	     -0.08592398	     -0.02042826	     -0.18695443	     30.56612896	    -11.00442052	     -3.93122681	    -69.59747750	    -15.00045012	      9.79566971	     28.01929365	     13.22570473	     17.24638325	     -2.64342799	    -16.48495823	      6.89379441	     -2.04323054	    -13.72093281	      5.85785573	    -10.79891703	     -0.72706707
      4.28000000	     -5.20683135	      8.33615045	     -1.95503740	     -0.07976259	     -0.01959555	     -0.18687362	     31.14785851	    -10.70799522	     -4.17724589	    -68.90279920	    -14.29460435	      9.66165370	     27.96110293	     12.27086105	     17.05215909	     -2.11454936	    -16.00817648	      7.12453571	     -2.11237262	    -13.98172078	      5.68598769	    -10.56948772	     -0.93337990
      4.28500000	     -5.06979013	      8.09990906	     -1.84910429	     -0.07361792	     -0.01882429	     -0.18684327	     31.67554262	    -10.46477521	     -4.45946658	    -68.13802448	    -13.59025050	      9.48522886	     27.85003387	     11.29875455	     16.88057433	     -1.60869730	    -15.53230227	      7.34731590	     -2.16515372	    -14.22715356	      5.48268955	    -10.36019371	     -1.14414735
      4.29000000	     -4.94288820	      7.86517811	     -1.73365550	     -0.06748498	     -0.01813062	     -0.18681583	     32.18389302	    -10.23207687	     -4.76124878	    -67.29979871	    -12.91526427	      9.30081335	     27.67730755	     10.35149888	     16.69724724	     -1.15172676	    -15.07361526	      7.58152187	     -2.17438847	    -14.44054731	      5.29043448	    -10.15996925	     -1.36620646
      4.29500000	     -4.80398602	      7.64917556	     -1.60361083	     -0.06139671	     -0.01750641	     -0.18683642	     32.65211540	    -10.03088529	     -5.07106972	    -66.39599096	    -12.22576813	      9.09034571	     27.40641305	      9.40930319	     16.52733756	     -0.72903928	    -14.63585077	      7.82909186	     -2.13394803	    -14.64710120	      5.07211959	     -9.96937197	     -1.59435464
      4.30000000	     -4.70104352	      7.41875742	     -1.47507761	     -0.05528136	     -0.01696356	     -0.18684829	     33.12534516	     -9.80823401	     -5.37697781	    -65.41124963	    -11.59689712	      8.90738159	     27.07578052	      8.51343930	     16.32422851	     -0.36641628	    -14.20606691	      8.10031123	     -2.01553174	    -14.79141316	      4.90350286	     -9.76154643	     -1.81451046
      4.30500000	     -4.63641485	      7.17143061	     -1.34352508	     -0.04917108	     -0.01649382	     -0.18684331	     33.60285907	     -9.55792464	     -5.67351026	    -64.33333541	    -11.03550415	      8.73707247	     26.76285445	      7.67961499	     16.08749315	     -0.07257343	    -13.79959680	      8.36173579	     -1.85380397	    -14.85146680	      4.77538443	     -9.54018120	     -2.04486534
      4.31000000	     -4.55671530	      6.94024916	     -1.21099474	     -0.04307132	     -0.01610320	     -0.18684457	     34.03838956	     -9.33038034	     -5.97501096	    -63.19623088	    -10.47252642	      8.55210660	     26.37830366	      6.84124533	     15.86221355	      0.19669988	    -13.40523763	      8.64094978	     -1.67389507	    -14.87600410	      4.62980198	     -9.33330282	     -2.26928530
      4.31500000	     -4.45387909	      6.73455565	     -1.08007415	     -0.03698684	     -0.01579706	     -0.18682083	     34.42757993	     -9.13068400	     -6.27852479	    -62.01720720	     -9.86633951	      8.37094171	     25.83309594	      5.99327287	     15.65710812	      0.44671881	    -13.03172571	      8.94892907	     -1.47807426	    -14.88455957	      4.45698428	     -9.15844958	     -2.48591863
      4.32000000	     -4.40376565	      6.51678161	     -0.95301341	     -0.03091159	     -0.01557630	     -0.18679447	     34.84203150	     -8.90216969	     -6.54924627	    -60.75497883	     -9.31523065	      8.24215747	     25.29795782	      5.22236992	     15.43212637	      0.65567625	    -12.67912730	      9.22900453	     -1.29238564	    -14.87273236	      4.34054987	     -8.96533223	     -2.70735561
      4.32500000	     -4.35443961	      6.33781617	     -0.88405202	     -0.02482064	     -0.01545678	     -0.18666616	     35.26213128	     -8.67089503	     -6.74449961	    -59.49252216	     -8.65558503	      8.24573585	     24.35851233	      4.45625527	     15.23626366	      0.80114905	    -12.31294773	      9.50820068	     -1.10955216	    -14.89485252	      4.23933078	     -8.80639078	     -2.83096684
      4.33000000	     -4.36286535	      6.13533153	     -0.73305438	     -0.01879118	     -0.01542032	     -0.18666057	     35.67957759	     -8.47002434	     -7.01272053	    -58.07926994	     -8.21671803	      8.13383132	     24.03776575	      3.78719017	     15.02549496	      0.99750039	    -12.01240891	      9.77225985	     -0.96721238	    -14.85475880	      4.17740887	     -8.62950605	     -3.08577557
      4.33500000	     -4.31811443	      5.94305743	     -0.63268037	     -0.01277005	     -0.01539407	     -0.18654966	     36.01707556	     -8.24106920	     -7.22704010	    -56.61258372	     -7.73919393	      8.07463950	     23.55990051	      3.06264760	     14.81547989	      1.15407941	    -11.69943802	     10.02669721	     -0.83893289	    -14.82821512	      4.05902505	     -8.46379406	     -3.27608349
      4.34000000	     -4.29124513	      5.77083078	     -0.53855480	     -0.00678392	     -0.01545364	     -0.18641140	     36.35312178	     -8.02390235	     -7.41476644	    -55.10080633	     -7.23206824	      8.09323563	     23.01808561	      2.37556873	     14.62451094	      1.29525152	    -11.40714954	     10.26998492	     -0.73166396	    -14.81446935	      3.95252230	     -8.32326747	     -3.45700432
      4.34500000	     -4.27743112	      5.61283648	     -0.45430776	     -0.00080767	     -0.01558323	     -0.18624169	     36.67503085	     -7.80696733	     -7.56395199	    -53.53261318	     -6.71832071	      8.18295529	     22.46750469	      1.71602701	     14.44597989	      1.42967141	    -11.13481825	     10.51353622	     -0.64245851	    -14.81263500	      3.86249778	     -8.19247237	     -3.61137074
      4.35000000	     -4.27084646	      5.47052713	     -0.37494678	      0.00512462	     -0.01577151	     -0.18604634	     36.97690804	     -7.60015126	     -7.69285152	    -51.90667005	     -6.20476257	      8.32940997	     21.95570900	      1.08054304	     14.28213049	      1.53431543	    -10.87874130	     10.74439510	     -0.56301121	    -14.82493079	      3.76934557	     -8.08182137	     -3.76901061
      4.35500000	     -4.27802369	      5.34234599	     -0.30366579	      0.01102314	     -0.01601960	     -0.18582922	     37.26329894	     -7.39649681	     -7.78588739	    -50.21993006	     -5.70363696	      8.53235181	     21.50497522	      0.47665741	     14.13092547	      1.61591964	    -10.64425840	     10.97231041	     -0.48247284	    -14.84399998	      3.68495974	     -7.98541307	     -3.91653563
      4.36000000	     -4.29941855	      5.22697693	     -0.23387015	      0.01688344	     -0.01632222	     -0.18559815	     37.53147931	     -7.20004285	     -7.85249314	    -48.47166399	     -5.21829581	      8.78248687	     21.13204062	     -0.09316949	     13.99102889	      1.66693717	    -10.43504143	     11.19679248	     -0.39320771	    -14.86272874	      3.60728288	     -7.90196627	     -4.06127821
      4.36500000	     -4.39698227	      5.13415858	     -0.18111525	      0.02268474	     -0.01673675	     -0.18534115	     37.86164312	     -6.99633808	     -7.82777493	    -46.66326970	     -4.82828143	      9.04584842	     20.90872895	     -0.55443708	     13.87314949	      1.70537455	    -10.25786650	     11.39690974	     -0.32028482	    -14.86021569	      3.60265090	     -7.83667191	     -4.17432973
      4.37000000	     -4.30449571	      5.03242359	     -0.09907004	      0.02842431	     -0.01699192	     -0.18505464	     37.91843320	     -6.81122734	     -7.86544566	    -44.81593593	     -4.23409698	      9.43281610	     20.36473458	     -1.20579656	     13.73256268	      1.65590291	    -10.11602437	     11.68828830	     -0.07412292	    -14.92177118	      3.36202707	     -7.78914642	     -4.40640980
      4.37500000	     -4.35595909	      4.95599554	     -0.00692679	      0.03418495	     -0.01741530	     -0.18483855	     38.10477041	     -6.67170558	     -7.91127704	    -42.91212456	     -3.75142586	      9.85631481	     20.15597572	     -1.69224780	     13.62314978	      1.60929030	     -9.98204252	     11.91733216	      0.13332263	    -14.93625417	      3.28635122	     -7.74940730	     -4.57604119
      4.38000000	     -4.37627156	      4.88470278	      0.07961648	      0.03989047	     -0.01783675	     -0.18460657	     38.21393013	     -6.51972405	     -7.89855170	    -40.95593014	     -3.27892202	     10.27257250	     19.93627519	     -2.18226206	     13.51304872	      1.50728982	     -9.89806893	     12.17944016	      0.40826906	    -14.93577943	      3.16493194	     -7.71155451	     -4.75642039
